<svg width="18" height="17" viewBox="0 0 18 17" fill="none" xmlns="http://www.w3.org/2000/svg">
<g style="mix-blend-mode:exclusion">
<path d="M3.68912 7.98035L0.633789 9.0748L1.68264 11.8565L4.64677 10.8989C6.19724 10.3517 7.06367 9.85004 8.02132 9.21161C7.7477 10.3061 7.6109 11.4005 7.6109 12.951V16.1887H10.575V12.951C10.575 11.4005 10.4382 10.2605 10.2102 9.21161C11.0767 9.80443 11.9887 10.3517 13.5392 10.8989L16.5489 11.9021L17.5977 9.0748L14.4968 7.98035C13.0375 7.47873 11.8519 7.29632 10.8486 7.15952C11.8063 6.33868 12.4903 5.65465 13.3112 4.4234L15.1352 1.68727L12.6727 0L10.8486 2.59932C9.891 3.92177 9.43498 4.97062 9.02456 5.92826C8.70535 4.74261 8.11252 3.64816 7.33729 2.59932L5.422 0L2.95949 1.68727L4.78357 4.4234C5.69561 5.70025 6.42525 6.38428 7.33729 7.15952C6.06043 7.34192 5.05719 7.47873 3.68912 7.98035Z" fill="#FBFBFB"/>
</g>
</svg>
