<svg width="150" height="40" viewBox="0 0 150 40" fill="none" xmlns="http://www.w3.org/2000/svg">
<path d="M37.7879 14.1228C38.9001 15.235 38.9001 17.0384 37.7879 18.1507L17.5794 38.3594C16.4672 39.4716 14.6638 39.4716 13.5515 38.3594L0.834236 25.6422C-0.278079 24.5295 -0.278079 22.7263 0.834236 21.614L21.0428 1.40549C22.155 0.293222 23.9585 0.293222 25.0707 1.40549L37.7879 14.1228Z" fill="white"/>
<path d="M42.5337 18.1507C43.6459 17.0384 43.6459 15.235 42.5337 14.1228L33.1826 4.77177L36.5492 1.40549C37.6614 0.293222 39.4648 0.293222 40.577 1.40549L53.2942 14.1228C54.4064 15.235 54.4064 17.0384 53.2942 18.1507L33.0858 38.3594C31.9736 39.4716 30.1702 39.4716 29.0575 38.3594L25.6914 34.9928L42.5337 18.1507Z" fill="white"/>
<path d="M75.597 21.3046C76.6703 21.5047 77.5528 22.0415 78.2444 22.9149C78.9356 23.7882 79.2816 24.7889 79.2816 25.9173C79.2816 26.936 79.0267 27.8365 78.5174 28.6193C78.026 29.3835 77.3073 29.9836 76.3613 30.4203C75.4152 30.857 74.2959 31.0754 73.0042 31.0754H64.7891V12.0249H72.6491C73.9413 12.0249 75.0511 12.2341 75.9791 12.6526C76.9252 13.0711 77.6349 13.6534 78.1077 14.3994C78.599 15.1454 78.8449 15.9915 78.8449 16.9377C78.8449 18.0476 78.5444 18.9755 77.9439 19.7216C77.3619 20.4676 76.5796 20.9952 75.597 21.3046ZM68.6099 19.8853H72.1032C73.0132 19.8853 73.7139 19.6852 74.2052 19.2849C74.696 18.8664 74.9419 18.275 74.9419 17.5109C74.9419 16.7466 74.696 16.1553 74.2052 15.7368C73.7139 15.3183 73.0132 15.109 72.1032 15.109H68.6099V19.8853ZM72.4583 27.9642C73.3863 27.9642 74.105 27.7458 74.6144 27.3091C75.1422 26.8724 75.4057 26.2539 75.4057 25.453C75.4057 24.6342 75.1327 23.9976 74.5868 23.5426C74.0414 23.0695 73.3042 22.833 72.3762 22.833H68.6099V27.9642H72.4583Z" fill="white"/>
<path d="M87.9485 31.3218C86.4931 31.3218 85.1829 31.0032 84.0185 30.3662C82.8541 29.7111 81.935 28.7926 81.2619 27.6096C80.6068 26.4271 80.2793 25.0624 80.2793 23.5158C80.2793 21.9692 80.6159 20.6045 81.289 19.4218C81.9806 18.2392 82.9177 17.3293 84.1002 16.6925C85.2831 16.0375 86.6023 15.71 88.0577 15.71C89.5131 15.71 90.8323 16.0375 92.0153 16.6925C93.1978 17.3293 94.1258 18.2392 94.7989 19.4218C95.4905 20.6045 95.8361 21.9692 95.8361 23.5158C95.8361 25.0624 95.4815 26.4271 94.7719 27.6096C94.0802 28.7926 93.1341 29.7111 91.9332 30.3662C90.7507 31.0032 89.4225 31.3218 87.9485 31.3218ZM87.9485 27.9917C88.6402 27.9917 89.2858 27.828 89.8863 27.5004C90.5048 27.1549 90.9961 26.6455 91.3602 25.9724C91.7243 25.2988 91.9061 24.4799 91.9061 23.5158C91.9061 22.0784 91.524 20.9776 90.7597 20.2133C90.0139 19.4309 89.0949 19.0397 88.0031 19.0397C86.9113 19.0397 85.9928 19.4309 85.2465 20.2133C84.5188 20.9776 84.1547 22.0784 84.1547 23.5158C84.1547 24.9532 84.5098 26.063 85.2195 26.8454C85.9472 27.6096 86.8567 27.9917 87.9485 27.9917Z" fill="white"/>
<path d="M101.368 18.3029C101.859 17.5023 102.496 16.8745 103.278 16.4196C104.079 15.9648 104.989 15.7373 106.008 15.7373V19.7494H104.998C103.797 19.7494 102.887 20.0314 102.269 20.5955C101.668 21.1596 101.368 22.1421 101.368 23.5432V31.0759H97.5469V15.9557H101.368V18.3029Z" fill="white"/>
<path d="M106.508 23.461C106.508 21.9326 106.808 20.577 107.408 19.3943C108.027 18.2117 108.864 17.3019 109.919 16.6651C110.975 16.0282 112.148 15.7098 113.44 15.7098C114.422 15.7098 115.36 15.9281 116.251 16.3648C117.143 16.7833 117.853 17.3474 118.38 18.057V10.8789H122.256V31.0757H118.38V28.8379C117.907 29.5837 117.243 30.1842 116.388 30.639C115.532 31.0942 114.541 31.3216 113.413 31.3216C112.139 31.3216 110.975 30.994 109.919 30.3389C108.864 29.6839 108.027 28.7648 107.408 27.5824C106.808 26.3814 106.508 25.0076 106.508 23.461ZM118.408 23.5156C118.408 22.5876 118.225 21.7962 117.862 21.1411C117.498 20.4679 117.006 19.9584 116.388 19.6127C115.769 19.2488 115.105 19.0668 114.395 19.0668C113.686 19.0668 113.031 19.2397 112.43 19.5854C111.83 19.9311 111.338 20.4406 110.956 21.1138C110.593 21.7689 110.41 22.5513 110.41 23.461C110.41 24.371 110.593 25.1714 110.956 25.863C111.338 26.5361 111.83 27.0545 112.43 27.4186C113.049 27.7822 113.704 27.9645 114.395 27.9645C115.105 27.9645 115.769 27.7917 116.388 27.4457C117.006 27.082 117.498 26.5722 117.862 25.9176C118.225 25.244 118.408 24.4437 118.408 23.5156Z" fill="white"/>
<path d="M138.953 23.1883C138.953 23.7341 138.916 24.2255 138.843 24.6622H127.79C127.881 25.754 128.262 26.609 128.936 27.2275C129.609 27.8465 130.437 28.1555 131.42 28.1555C132.839 28.1555 133.849 27.546 134.449 26.327H138.57C138.134 27.7824 137.297 28.9834 136.059 29.9295C134.822 30.8575 133.303 31.3218 131.501 31.3218C130.046 31.3218 128.736 31.0032 127.571 30.3662C126.425 29.7111 125.524 28.7926 124.869 27.6096C124.232 26.4271 123.914 25.0624 123.914 23.5158C123.914 21.951 124.232 20.5772 124.869 19.3945C125.506 18.2119 126.398 17.3021 127.544 16.6652C128.69 16.0284 130.009 15.71 131.501 15.71C132.939 15.71 134.222 16.0193 135.35 16.638C136.496 17.2566 137.378 18.139 137.997 19.2854C138.634 20.4135 138.953 21.7145 138.953 23.1883ZM134.995 22.0966C134.976 21.114 134.622 20.3316 133.93 19.7494C133.239 19.1489 132.393 18.8487 131.392 18.8487C130.446 18.8487 129.646 19.1398 128.99 19.7221C128.353 20.2861 127.962 21.0776 127.817 22.0966H134.995Z" fill="white"/>
<path d="M144.469 18.3029C144.961 17.5023 145.598 16.8745 146.38 16.4196C147.181 15.9648 148.09 15.7373 149.109 15.7373V19.7494H148.099C146.899 19.7494 145.989 20.0314 145.37 20.5955C144.77 21.1596 144.469 22.1421 144.469 23.5432V31.0759H140.648V15.9557H144.469V18.3029Z" fill="white"/>
</svg>
