<svg width="191" height="31" viewBox="0 0 191 31" fill="none" xmlns="http://www.w3.org/2000/svg">
<path d="M0 29.7479V0.51123H5.49443L19.617 21.1023V0.51123H25.1115V29.7479H19.617L5.49443 9.1987V29.7479H0Z" fill="white"/>
<path d="M39.0067 30.2491C36.8602 30.2491 34.9573 29.8037 33.2976 28.9124C31.6379 28.0215 30.3357 26.7684 29.3912 25.1535C28.4467 23.5386 27.9746 21.6728 27.9746 19.5567C27.9746 17.4127 28.4324 15.5053 29.3484 13.8347C30.2925 12.164 31.5804 10.8692 33.2116 9.95037C34.8714 9.00365 36.8174 8.53027 39.0494 8.53027C41.1389 8.53027 42.9843 8.97579 44.587 9.86682C46.1898 10.7579 47.4344 11.983 48.3215 13.5423C49.2376 15.0737 49.6954 16.7862 49.6954 18.6796C49.6954 18.9859 49.6811 19.3061 49.6522 19.6403C49.6522 19.9744 49.6379 20.3222 49.6094 20.6845H33.4263C33.5407 22.2994 34.113 23.5663 35.1435 24.4854C36.202 25.404 37.4756 25.8637 38.9639 25.8637C40.0799 25.8637 41.0097 25.6267 41.7539 25.1535C42.5265 24.6522 43.0988 24.0118 43.471 23.2323H49.0514C48.6506 24.5408 47.9782 25.738 47.0337 26.8243C46.1181 27.8824 44.9736 28.7174 43.5998 29.3301C42.2549 29.9428 40.7238 30.2491 39.0067 30.2491ZM39.0494 12.874C37.7045 12.874 36.5168 13.2499 35.4868 14.0018C34.4563 14.7257 33.7981 15.8395 33.5122 17.3431H44.115C44.029 15.9787 43.5138 14.8927 42.5697 14.0853C41.6252 13.2778 40.4517 12.874 39.0494 12.874Z" fill="white"/>
<path d="M48.6855 29.7466L56.4119 19.3885L48.6855 9.03027H54.5665L59.975 16.3812L65.3407 9.03027H71.2645L63.4949 19.3885L71.2645 29.7466H65.3407L59.975 22.3957L54.5665 29.7466H48.6855Z" fill="white"/>
<path d="M82.1063 29.7464C79.8739 29.7464 78.0854 29.2173 76.7401 28.1592C75.3952 27.1011 74.7228 25.2219 74.7228 22.5207V13.4992H71.0742V9.03007H74.7228L75.3667 3.4751H80.2172V9.03007H85.9695V13.4992H80.2172V22.5627C80.2172 23.565 80.4319 24.2613 80.8612 24.6508C81.3189 25.013 82.0916 25.1937 83.1791 25.1937H85.8408V29.7464H82.1063Z" fill="white"/>
<path d="M88.5391 29.7478V9.03147H93.39L93.862 11.8298C94.5487 10.8274 95.4505 10.0339 96.5665 9.44917C97.711 8.83657 99.0274 8.53027 100.516 8.53027C103.807 8.53027 106.139 9.76938 107.513 12.2475C108.285 11.1059 109.315 10.2009 110.603 9.53271C111.92 8.86443 113.35 8.53027 114.896 8.53027C117.672 8.53027 119.804 9.33777 121.292 10.9528C122.78 12.5678 123.524 14.9345 123.524 18.0531V29.7478H118.029V18.5543C118.029 16.7723 117.672 15.4079 116.956 14.4612C116.269 13.5145 115.196 13.0411 113.737 13.0411C112.249 13.0411 111.047 13.5701 110.131 14.6282C109.244 15.6863 108.8 17.1621 108.8 19.0555V29.7478H103.306V18.5543C103.306 16.7723 102.948 15.4079 102.233 14.4612C101.517 13.5145 100.415 13.0411 98.9272 13.0411C97.4678 13.0411 96.2802 13.5701 95.3646 14.6282C94.4775 15.6863 94.0339 17.1621 94.0339 19.0555V29.7478H88.5391Z" fill="white"/>
<path d="M136.812 30.2491C134.751 30.2491 132.891 29.7894 131.231 28.8708C129.6 27.9518 128.298 26.6848 127.325 25.0699C126.38 23.4273 125.908 21.5337 125.908 19.3897C125.908 17.2456 126.395 15.3661 127.368 13.7511C128.341 12.1083 129.643 10.8274 131.274 9.9086C132.934 8.98974 134.794 8.53027 136.854 8.53027C138.886 8.53027 140.718 8.98974 142.349 9.9086C144.008 10.8274 145.311 12.1083 146.255 13.7511C147.228 15.3661 147.714 17.2456 147.714 19.3897C147.714 21.5337 147.228 23.4273 146.255 25.0699C145.311 26.6848 144.008 27.9518 142.349 28.8708C140.689 29.7894 138.843 30.2491 136.812 30.2491ZM136.812 25.6128C138.242 25.6128 139.487 25.0976 140.546 24.0677C141.605 23.0096 142.134 21.4501 142.134 19.3897C142.134 17.3291 141.605 15.7838 140.546 14.7535C139.487 13.6955 138.257 13.1664 136.854 13.1664C135.395 13.1664 134.136 13.6955 133.077 14.7535C132.047 15.7838 131.531 17.3291 131.531 19.3897C131.531 21.4501 132.047 23.0096 133.077 24.0677C134.136 25.0976 135.381 25.6128 136.812 25.6128Z" fill="white"/>
<path d="M155.186 29.7466L147.373 9.03027H153.125L158.534 24.693L163.943 9.03027H169.695L161.839 29.7466H155.186Z" fill="white"/>
<path d="M180.311 30.2491C178.165 30.2491 176.262 29.8037 174.602 28.9124C172.943 28.0215 171.64 26.7684 170.696 25.1535C169.752 23.5386 169.279 21.6728 169.279 19.5567C169.279 17.4127 169.738 15.5053 170.653 13.8347C171.598 12.164 172.885 10.8692 174.516 9.95037C176.176 9.00365 178.122 8.53027 180.355 8.53027C182.444 8.53027 184.289 8.97579 185.892 9.86682C187.494 10.7579 188.739 11.983 189.626 13.5423C190.542 15.0737 191 16.7862 191 18.6796C191 18.9859 190.986 19.3061 190.957 19.6403C190.957 19.9744 190.943 20.3222 190.914 20.6845H174.731C174.845 22.2994 175.418 23.5663 176.448 24.4854C177.507 25.404 178.78 25.8637 180.269 25.8637C181.385 25.8637 182.315 25.6267 183.059 25.1535C183.831 24.6522 184.404 24.0118 184.776 23.2323H190.356C189.955 24.5408 189.283 25.738 188.339 26.8243C187.423 27.8824 186.278 28.7174 184.904 29.3301C183.56 29.9428 182.029 30.2491 180.311 30.2491ZM180.355 12.874C179.009 12.874 177.822 13.2499 176.791 14.0018C175.761 14.7257 175.103 15.8395 174.817 17.3431H185.42C185.334 15.9787 184.818 14.8927 183.874 14.0853C182.93 13.2778 181.756 12.874 180.355 12.874Z" fill="white"/>
</svg>
