<svg width="206" height="32" viewBox="0 0 206 32" fill="none" xmlns="http://www.w3.org/2000/svg">
<path d="M0 20.1353L8.69142 16.3516L13.6941 19.1893L14.7047 28.4989L8.53984 28.4493L9.44939 21.9774L8.38823 21.3796L3.18347 25.3626L0 20.1353Z" fill="white"/>
<path d="M14.0645 18.9602L21.8572 24.6629L24.9331 19.1657L18.6784 16.6483V15.4153L24.9331 12.8466L21.8572 7.40088L14.0645 13.1035V18.9602Z" fill="white"/>
<path d="M13.6941 12.2354L14.7047 2.92578L8.53984 3.02536L9.44939 9.4973L8.38823 10.0947L3.13294 6.11199L0 11.2895L8.69142 15.0731L13.6941 12.2354Z" fill="white"/>
<path d="M63.2673 13.692V30.3357H69.4599V9.125H60.4414V13.692H63.2673Z" fill="white"/>
<path d="M63.0743 6.14494C63.642 6.73831 64.5064 7.03502 65.6674 7.03502C66.8291 7.03502 67.6801 6.73831 68.2216 6.14494C68.79 5.52543 69.0732 4.75132 69.0732 3.82262C69.0732 2.86778 68.79 2.09361 68.2216 1.50031C67.6801 0.881048 66.8291 0.571289 65.6674 0.571289C64.5064 0.571289 63.642 0.881048 63.0743 1.50031C62.5328 2.09361 62.2617 2.86778 62.2617 3.82262C62.2617 4.75132 62.5328 5.52543 63.0743 6.14494Z" fill="white"/>
<path d="M41.7088 29.8709C43.4632 30.6707 45.6177 31.0709 48.1719 31.0709C50.5719 31.0709 52.6357 30.6969 54.3651 29.9483C56.0938 29.2003 57.4224 28.1549 58.3513 26.8136C59.3065 25.4454 59.7834 23.8586 59.7834 22.0524C59.7834 20.2979 59.3327 18.8142 58.4293 17.6013C57.5515 16.3628 56.3266 15.3952 54.7519 14.6987C53.1778 13.976 51.3589 13.5244 49.2945 13.344L47.1272 13.1505C45.837 13.047 44.9081 12.6989 44.3403 12.1052C43.7726 11.5119 43.4887 10.8151 43.4887 10.0154C43.4887 9.3958 43.6441 8.82832 43.9529 8.31225C44.263 7.77029 44.7271 7.34462 45.3466 7.03486C45.9917 6.72536 46.7787 6.57051 47.7077 6.57051C48.6878 6.57051 49.501 6.75093 50.1461 7.11241C50.288 7.18881 50.4229 7.27046 50.5495 7.35709L50.5802 7.37857C50.6275 7.4113 50.6742 7.44525 50.7196 7.47952C51.1115 7.77905 51.4235 8.134 51.6556 8.54439C51.9906 9.11225 52.1594 9.74423 52.1594 10.441H58.3513C58.3513 8.58308 57.9255 6.97035 57.0746 5.60288C56.223 4.20952 54.9974 3.13869 53.3978 2.39016C51.8231 1.61606 49.9268 1.229 47.7077 1.229C45.5915 1.229 43.7598 1.59049 42.2113 2.31287C40.6635 3.00968 39.4507 4.01599 38.5735 5.33174C37.7213 6.64781 37.2955 8.20913 37.2955 10.0154C37.2955 12.5181 38.1349 14.5307 39.8119 16.0534C41.4889 17.5758 43.7342 18.453 46.5467 18.6852L48.6756 18.8787C50.4038 19.0336 51.6556 19.382 52.4298 19.9236C53.2034 20.4397 53.5908 21.1493 53.5908 22.0524C53.5908 22.4676 53.5231 22.8568 53.3869 23.2205C53.2859 23.4904 53.1478 23.7461 52.972 23.9878C52.5583 24.5299 51.9522 24.9551 51.1524 25.2652C50.3526 25.5746 49.3591 25.7293 48.1719 25.7293C46.8561 25.7293 45.7852 25.549 44.9598 25.1878C44.1338 24.8004 43.5149 24.2972 43.1013 23.6783C42.7145 23.0587 42.5214 22.3881 42.5214 21.6654H36.3672C36.3672 23.4974 36.8186 25.1232 37.7213 26.5425C38.6247 27.9357 39.9539 29.0455 41.7088 29.8709Z" fill="white"/>
<path d="M83.278 30.6059C81.1363 30.6059 79.4075 30.3482 78.0918 29.8317C76.7754 29.2902 75.8081 28.4002 75.1885 27.1618C74.5952 25.8972 74.2986 24.194 74.2986 22.0522V13.6532H71.0859V9.12479H74.2986V3.39648H80.0654V9.12479H86.2586V13.6532H80.0654V22.2847C80.0654 23.291 80.3237 24.0649 80.8396 24.6064C81.3811 25.123 82.1426 25.3806 83.1233 25.3806H86.2586V30.6059H83.278Z" fill="white"/>
<path fill-rule="evenodd" clip-rule="evenodd" d="M93.714 30.1421C95.1071 30.7616 96.7074 31.071 98.5135 31.071C100.293 31.071 101.868 30.7616 103.236 30.1421C104.603 29.5226 105.739 28.6582 106.641 27.549C107.545 26.4391 108.151 25.1751 108.46 23.7558H102.771C102.513 24.4009 102.023 24.9424 101.3 25.381C100.578 25.8202 99.6483 26.0395 98.5135 26.0395C97.8102 26.0395 97.1818 25.9564 96.6281 25.7895C96.2068 25.6629 95.8289 25.4884 95.4946 25.2653C94.7203 24.7493 94.1526 24.0262 93.7914 23.0978C93.691 22.8332 93.6053 22.5565 93.5331 22.2682C93.4596 21.9762 93.4001 21.6723 93.3553 21.356H108.848V19.2659C108.848 17.3306 108.435 15.5502 107.609 13.9247C106.783 12.273 105.583 10.9442 104.01 9.93786C102.461 8.90572 100.552 8.38965 98.2808 8.38965C96.552 8.38965 95.0035 8.6994 93.636 9.31866C92.2953 9.91196 91.1727 10.7248 90.2693 11.7569C89.3665 12.789 88.6697 13.9633 88.1787 15.2794C87.7145 16.5692 87.4824 17.9239 87.4824 19.3432V20.1173C87.4824 21.4851 87.7145 22.8266 88.1787 24.1426C88.6697 25.4328 89.3665 26.6066 90.2693 27.6647C91.1982 28.6972 92.3458 29.5226 93.714 30.1421ZM93.4621 17.5288C93.4794 17.4468 93.4973 17.3661 93.5171 17.2866C93.5708 17.0678 93.6328 16.8581 93.7031 16.6578C93.7428 16.5437 93.785 16.4324 93.8304 16.3243C94.2172 15.3694 94.7849 14.6471 95.5329 14.1568C95.813 13.9736 96.116 13.8246 96.4414 13.7099C96.9887 13.5177 97.6024 13.4214 98.2808 13.4214C99.3395 13.4214 100.216 13.6666 100.913 14.1568C101.635 14.6212 102.178 15.3049 102.539 16.2081C102.568 16.2809 102.596 16.3552 102.622 16.4302C102.665 16.5499 102.705 16.6727 102.742 16.7986C102.796 16.9859 102.844 17.1797 102.887 17.3802C102.917 17.5278 102.943 17.679 102.967 17.8339H93.4027C93.4206 17.7304 93.4404 17.6288 93.4621 17.5288Z" fill="white"/>
<path d="M111.402 30.3358V9.12516H116.318V14.4672C116.385 14.1497 116.461 13.8449 116.546 13.5526C116.619 13.3064 116.697 13.069 116.782 12.8408C117.325 11.3958 118.137 10.3121 119.221 9.58944C120.304 8.84123 121.633 8.46729 123.208 8.46729H123.478C125.078 8.46729 126.407 8.84123 127.465 9.58944C128.549 10.3121 129.362 11.3958 129.903 12.8408L129.946 12.9499L129.983 13.0496C130.007 12.9792 130.033 12.9097 130.058 12.8408C130.626 11.3958 131.452 10.3121 132.536 9.58944C133.619 8.84123 134.948 8.46729 136.522 8.46729H136.794C138.392 8.46729 139.734 8.84123 140.818 9.58944C141.928 10.3121 142.767 11.3958 143.334 12.8408C143.902 14.2859 144.186 16.0922 144.186 18.2596V30.3358H137.993V17.9112C137.993 16.75 137.683 15.8082 137.064 15.0859C136.471 14.3632 135.619 14.002 134.51 14.002C133.4 14.002 132.523 14.3763 131.878 15.1245C131.233 15.8469 130.91 16.8145 130.91 18.0274V30.3358H124.678V17.9112C124.678 16.75 124.369 15.8082 123.749 15.0859C123.156 14.3632 122.317 14.002 121.234 14.002C120.098 14.002 119.208 14.3763 118.563 15.1245C117.918 15.8469 117.595 16.8145 117.595 18.0274V30.3358H111.402Z" fill="white"/>
<path fill-rule="evenodd" clip-rule="evenodd" d="M160.728 26.2487V30.336H165.643V17.3308C165.643 15.3696 165.256 13.7699 164.482 12.5312C163.708 11.2669 162.573 10.3251 161.076 9.70587C159.606 9.08661 157.786 8.77686 155.619 8.77686C155.149 8.77686 154.659 8.78184 154.147 8.79213C153.845 8.79833 153.535 8.80613 153.219 8.81547C152.367 8.84136 151.541 8.87998 150.742 8.9317L150.131 8.97287C149.817 8.99467 149.522 9.01616 149.245 9.03802C149.036 9.0542 148.839 9.07044 148.652 9.08661V14.3119C149.452 14.2602 150.342 14.2084 151.323 14.157C151.597 14.1427 151.869 14.1292 152.138 14.1168C152.528 14.0987 152.913 14.0831 153.293 14.0695C153.593 14.0585 153.891 14.0489 154.187 14.0407C155.115 14.0149 155.864 14.0021 156.431 14.0021C157.567 14.0021 158.392 14.273 158.909 14.8149C159.425 15.3568 159.683 16.1695 159.683 17.2535V17.3308H155.851C153.968 17.3308 152.303 17.576 150.858 18.0662C149.413 18.5305 148.29 19.266 147.491 20.2723C146.691 21.253 146.291 22.5174 146.291 24.0654C146.291 25.4847 146.613 26.7103 147.258 27.7428C147.903 28.7491 148.793 29.5227 149.929 30.0649C151.09 30.6064 152.432 30.8775 153.954 30.8775C155.425 30.8775 156.664 30.6064 157.671 30.0649C158.702 29.5227 159.502 28.7491 160.07 27.7428C160.17 27.5728 160.263 27.3969 160.35 27.2141C160.473 26.9558 160.582 26.6841 160.679 26.3989L160.728 26.2487ZM159.683 22.4787V20.7756H155.812C154.728 20.7756 153.89 21.0464 153.297 21.5883C152.729 22.1044 152.445 22.814 152.445 23.7169C152.445 24.1421 152.516 24.5289 152.657 24.8767C152.799 25.2258 153.012 25.5358 153.297 25.8076C153.89 26.3235 154.728 26.5812 155.812 26.5812C156.018 26.5812 156.218 26.5709 156.41 26.5511C156.568 26.5345 156.72 26.5108 156.868 26.4808C157.152 26.4232 157.42 26.3408 157.671 26.2327C158.238 25.9751 158.702 25.5493 159.063 24.9553C159.425 24.362 159.631 23.5366 159.683 22.4787Z" fill="white"/>
<path d="M169.35 30.336V9.12531H174.265V16.1263C174.501 14.1277 175.095 12.5162 176.046 11.2927C177.336 9.66721 179.193 8.85449 181.62 8.85449H182.432V14.1957H180.884C179.181 14.1957 177.865 14.66 176.936 15.589C176.007 16.4921 175.542 17.8082 175.542 19.5369V30.336H169.35Z" fill="white"/>
<path d="M190.286 20.4273H192.338L199.034 30.336H206.001L197.51 18.167L204.491 9.12537H197.989L190.286 19.2106V2.08105H184.094V30.336H190.286V20.4273Z" fill="white"/>
</svg>
