<svg width="197" height="39" viewBox="0 0 197 39" fill="none" xmlns="http://www.w3.org/2000/svg">
<path d="M24.0609 4.36821H10.3125V0.0717773H24.0609C28.8067 0.0717773 32.6537 3.91893 32.6537 8.66464V22.4131H28.3573V8.66464C28.3573 6.29181 26.4338 4.36821 24.0609 4.36821Z" fill="white"/>
<path d="M8.59286 28.4282H22.3412V32.7247H8.59286C3.84715 32.7247 0 28.8776 0 24.1318V10.3833H4.29643V24.1318C4.29643 26.5047 6.21999 28.4282 8.59286 28.4282Z" fill="white"/>
<path fill-rule="evenodd" clip-rule="evenodd" d="M24.9199 16.398C24.9199 21.1437 21.0729 24.9908 16.3272 24.9908C11.5815 24.9908 7.73438 21.1437 7.73438 16.398C7.73438 11.6523 11.5815 7.80518 16.3272 7.80518C21.0729 7.80518 24.9199 11.6523 24.9199 16.398ZM20.6237 16.398C20.6237 18.7709 18.7001 20.6945 16.3272 20.6945C13.9544 20.6945 12.0308 18.7709 12.0308 16.398C12.0308 14.0252 13.9544 12.1016 16.3272 12.1016C18.7001 12.1016 20.6237 14.0252 20.6237 16.398Z" fill="white"/>
<path d="M50.9869 29.988C49.3598 29.988 47.8952 29.7092 46.5929 29.1511C45.2911 28.5702 44.2681 27.7565 43.5244 26.7103C42.7803 25.6641 42.4082 24.4435 42.4082 23.0484H46.663C46.7558 24.0946 47.1626 24.9548 47.8836 25.6293C48.6273 26.3034 49.6619 26.6407 50.9869 26.6407C52.3587 26.6407 53.4281 26.315 54.1955 25.6641C54.9624 24.99 55.346 24.1298 55.346 23.0837C55.346 22.2699 55.102 21.6074 54.6139 21.0958C54.1486 20.5843 53.5561 20.189 52.8352 19.9101C52.1379 19.6311 51.1613 19.3288 49.9059 19.0034C48.3252 18.5849 47.035 18.1664 46.0352 17.748C45.0587 17.3063 44.2217 16.6321 43.5244 15.7253C42.8267 14.8187 42.4782 13.6098 42.4782 12.0986C42.4782 10.7037 42.8267 9.48319 43.5244 8.43701C44.2217 7.39083 45.1983 6.58877 46.4537 6.03079C47.7091 5.47281 49.1622 5.19385 50.8129 5.19385C53.1609 5.19385 55.0788 5.78667 56.5667 6.97235C58.0777 8.13475 58.9147 9.73891 59.0775 11.7847H54.6835C54.6139 10.9013 54.1955 10.1457 53.4281 9.51803C52.6608 8.89032 51.6498 8.57647 50.3944 8.57647C49.255 8.57647 48.3252 8.86708 47.6043 9.4483C46.8838 10.0295 46.5233 10.8665 46.5233 11.9591C46.5233 12.7031 46.7442 13.3192 47.1858 13.8074C47.6507 14.2723 48.232 14.6443 48.9298 14.9233C49.6271 15.2023 50.58 15.5045 51.789 15.83C53.3933 16.2717 54.6951 16.7134 55.6949 17.1552C56.7179 17.5969 57.578 18.2827 58.2753 19.2126C58.9963 20.1193 59.3563 21.3397 59.3563 22.8744C59.3563 24.1062 59.0195 25.2688 58.3454 26.3614C57.694 27.454 56.7295 28.3378 55.4509 29.0119C54.1955 29.6628 52.7076 29.988 50.9869 29.988Z" fill="white"/>
<path d="M71.9992 10.2158C73.5106 10.2158 74.8589 10.5297 76.0447 11.1574C77.2533 11.7851 78.195 12.715 78.8691 13.9472C79.5433 15.1793 79.8805 16.6672 79.8805 18.4109V29.7443H75.9398V19.0037C75.9398 17.2833 75.5098 15.9698 74.6496 15.0631C73.7895 14.1331 72.6153 13.6682 71.1274 13.6682C69.6396 13.6682 68.4537 14.1331 67.5704 15.0631C66.7103 15.9698 66.2802 17.2833 66.2802 19.0037V29.7443H62.3047V10.5297H66.2802V12.7266C66.9311 11.9362 67.7564 11.3201 68.7562 10.8784C69.7792 10.4367 70.8602 10.2158 71.9992 10.2158Z" fill="white"/>
<path d="M81.8828 20.0499C81.8828 18.1203 82.2781 16.4115 83.0686 14.9236C83.8824 13.4357 84.975 12.2849 86.3464 11.4712C87.7414 10.6343 89.2757 10.2158 90.9496 10.2158C92.4611 10.2158 93.7745 10.518 94.8903 11.1225C96.0297 11.7037 96.9362 12.436 97.6103 13.3195V10.5297H101.621V29.7443H97.6103V26.885C96.9362 27.7916 96.0176 28.5473 94.8555 29.1514C93.6928 29.7559 92.3678 30.0584 90.88 30.0584C89.2293 30.0584 87.7182 29.6399 86.3464 28.803C84.975 27.9428 83.8824 26.757 83.0686 25.2459C82.2781 23.7117 81.8828 21.9794 81.8828 20.0499ZM97.6103 20.1196C97.6103 18.7945 97.3315 17.6437 96.7734 16.6672C96.2389 15.6908 95.5296 14.9468 94.6462 14.4354C93.7629 13.9239 92.8095 13.6682 91.7865 13.6682C90.7635 13.6682 89.8106 13.9239 88.9272 14.4354C88.0435 14.9236 87.3229 15.6559 86.7648 16.6324C86.2304 17.5855 85.9631 18.7247 85.9631 20.0499C85.9631 21.3749 86.2304 22.5375 86.7648 23.5372C87.3229 24.5366 88.0435 25.3039 88.9272 25.8388C89.8338 26.3501 90.7872 26.6058 91.7865 26.6058C92.8095 26.6058 93.7629 26.3501 94.6462 25.8388C95.5296 25.3271 96.2389 24.5834 96.7734 23.6068C97.3315 22.6071 97.6103 21.4449 97.6103 20.1196Z" fill="white"/>
<path d="M109.073 13.3543C109.747 12.4709 110.666 11.727 111.828 11.1225C112.991 10.518 114.304 10.2158 115.769 10.2158C117.443 10.2158 118.965 10.6343 120.337 11.4712C121.732 12.2849 122.825 13.4357 123.615 14.9236C124.405 16.4115 124.801 18.1203 124.801 20.0499C124.801 21.9794 124.405 23.7117 123.615 25.2459C122.825 26.757 121.732 27.9428 120.337 28.803C118.965 29.6399 117.443 30.0584 115.769 30.0584C114.304 30.0584 113.002 29.7675 111.863 29.1866C110.724 28.5821 109.794 27.838 109.073 26.9546V38.8811H105.098V10.5297H109.073V13.3543ZM120.756 20.0499C120.756 18.7247 120.477 17.5855 119.919 16.6324C119.384 15.6559 118.663 14.9236 117.757 14.4354C116.873 13.9239 115.92 13.6682 114.897 13.6682C113.897 13.6682 112.944 13.9239 112.037 14.4354C111.154 14.9468 110.433 15.6908 109.875 16.6672C109.341 17.6437 109.073 18.7945 109.073 20.1196C109.073 21.4449 109.341 22.6071 109.875 23.6068C110.433 24.5834 111.154 25.3271 112.037 25.8388C112.944 26.3501 113.897 26.6058 114.897 26.6058C115.92 26.6058 116.873 26.3501 117.757 25.8388C118.663 25.3039 119.384 24.5366 119.919 23.5372C120.477 22.5375 120.756 21.3749 120.756 20.0499Z" fill="white"/>
<path d="M134.975 29.988C133.348 29.988 131.883 29.7092 130.581 29.1511C129.279 28.5702 128.256 27.7565 127.513 26.7103C126.769 25.6641 126.396 24.4435 126.396 23.0484H130.651C130.744 24.0946 131.151 24.9548 131.871 25.6293C132.616 26.3034 133.65 26.6407 134.975 26.6407C136.347 26.6407 137.416 26.315 138.184 25.6641C138.951 24.99 139.334 24.1298 139.334 23.0837C139.334 22.2699 139.09 21.6074 138.602 21.0958C138.137 20.5843 137.544 20.189 136.823 19.9101C136.126 19.6311 135.15 19.3288 133.894 19.0034C132.314 18.5849 131.023 18.1664 130.024 17.748C129.047 17.3063 128.21 16.6321 127.513 15.7253C126.815 14.8187 126.467 13.6098 126.467 12.0986C126.467 10.7037 126.815 9.48319 127.513 8.43701C128.21 7.39083 129.187 6.58877 130.442 6.03079C131.697 5.47281 133.15 5.19385 134.801 5.19385C137.149 5.19385 139.067 5.78667 140.555 6.97235C142.066 8.13475 142.903 9.73891 143.066 11.7847H138.672C138.602 10.9013 138.184 10.1457 137.416 9.51803C136.649 8.89032 135.638 8.57647 134.382 8.57647C133.243 8.57647 132.314 8.86708 131.593 9.4483C130.872 10.0295 130.512 10.8665 130.512 11.9591C130.512 12.7031 130.732 13.3192 131.174 13.8074C131.639 14.2723 132.22 14.6443 132.918 14.9233C133.615 15.2023 134.568 15.5045 135.777 15.83C137.382 16.2717 138.683 16.7134 139.683 17.1552C140.706 17.5969 141.566 18.2827 142.264 19.2126C142.985 20.1193 143.345 21.3397 143.345 22.8744C143.345 24.1062 143.008 25.2688 142.333 26.3614C141.682 27.454 140.718 28.3378 139.439 29.0119C138.184 29.6628 136.695 29.988 134.975 29.988Z" fill="white"/>
<path d="M156.23 10.216C157.694 10.216 158.996 10.5299 160.135 11.1576C161.298 11.7853 162.205 12.7152 162.855 13.9474C163.53 15.1795 163.867 16.6674 163.867 18.4111V29.7445H159.926V19.0039C159.926 17.2835 159.496 15.97 158.636 15.0633C157.776 14.1334 156.602 13.6684 155.114 13.6684C153.626 13.6684 152.44 14.1334 151.557 15.0633C150.697 15.97 150.266 17.2835 150.266 19.0039V29.7445H146.291V3.93896H150.266V12.7617C150.941 11.948 151.789 11.3203 152.812 10.8786C153.858 10.4369 154.998 10.216 156.23 10.216Z" fill="white"/>
<path d="M175.529 30.0584C173.716 30.0584 172.077 29.6515 170.612 28.8378C169.148 28.0008 167.997 26.8382 167.16 25.3503C166.323 23.8393 165.904 22.0958 165.904 20.1196C165.904 18.1668 166.334 16.4347 167.195 14.9236C168.055 13.4125 169.229 12.2501 170.717 11.4364C172.205 10.6227 173.867 10.2158 175.704 10.2158C177.54 10.2158 179.203 10.6227 180.69 11.4364C182.178 12.2501 183.352 13.4125 184.212 14.9236C185.073 16.4347 185.503 18.1668 185.503 20.1196C185.503 22.0726 185.061 23.8045 184.177 25.3155C183.294 26.8266 182.085 28.0008 180.551 28.8378C179.04 29.6515 177.366 30.0584 175.529 30.0584ZM175.529 26.6058C176.552 26.6058 177.505 26.3617 178.389 25.8736C179.295 25.3856 180.028 24.653 180.586 23.6765C181.144 22.7003 181.423 21.5145 181.423 20.1196C181.423 18.7247 181.155 17.5507 180.62 16.5975C180.086 15.621 179.377 14.8887 178.493 14.4005C177.61 13.9123 176.657 13.6682 175.634 13.6682C174.611 13.6682 173.658 13.9123 172.774 14.4005C171.914 14.8887 171.228 15.621 170.717 16.5975C170.205 17.5507 169.949 18.7247 169.949 20.1196C169.949 22.1886 170.473 23.7929 171.519 24.9319C172.588 26.0481 173.925 26.6058 175.529 26.6058Z" fill="white"/>
<path d="M192.327 13.7726V24.4088C192.327 25.1293 192.49 25.6526 192.816 25.9779C193.164 26.2803 193.746 26.4316 194.559 26.4316H197.001V29.7441H193.862C192.072 29.7441 190.7 29.3256 189.747 28.4887C188.794 27.6518 188.317 26.2919 188.317 24.4088V13.7726H186.051V10.5295H188.317V5.75195H192.327V10.5295H197.001V13.7726H192.327Z" fill="white"/>
</svg>
