<svg width="123" height="38" viewBox="0 0 123 38" fill="none" xmlns="http://www.w3.org/2000/svg">
<path d="M18.3553 1.47363H24.296L17.8223 28.7244H7.37414L0.900391 1.47363H6.84153L11.6766 23.9154H13.5202L18.3553 1.47363Z" fill="white"/>
<path d="M29.9611 20.9903C29.9883 22.2193 30.316 23.1143 30.9442 23.6754C31.5997 24.2097 32.5285 24.4769 33.7305 24.4769C36.2707 24.4769 38.538 24.3967 40.532 24.2364L41.6793 24.1162L41.7613 28.0837C38.6201 28.8316 35.779 29.2058 33.2388 29.2058C30.1523 29.2058 27.9123 28.4043 26.5193 26.8012C25.126 25.1982 24.4297 22.5934 24.4297 18.9866C24.4297 11.7999 27.4481 8.20654 33.4844 8.20654C39.4392 8.20654 42.4168 11.2255 42.4168 17.2634L42.007 20.9903H29.9611ZM37.0082 16.9027C37.0082 15.2998 36.7489 14.191 36.2299 13.5765C35.7109 12.9353 34.7958 12.6148 33.4844 12.6148C32.2007 12.6148 31.2856 12.9487 30.7394 13.6166C30.2204 14.2578 29.9475 15.3532 29.9198 16.9027H37.0082Z" fill="white"/>
<path d="M45.5195 28.7248V8.68743H50.9689V10.8114C53.2634 9.4756 55.4486 8.60728 57.5247 8.20654V13.6166C55.3118 14.0708 53.4134 14.5384 51.8292 15.0193L51.0097 15.2998V28.7248H45.5195Z" fill="white"/>
<path d="M71.2952 13.2556H66.2556V21.4709C66.2556 22.2724 66.2692 22.8467 66.2968 23.1941C66.3512 23.5147 66.5017 23.7952 66.7474 24.0356C67.0207 24.2761 67.43 24.3963 67.9767 24.3963L71.0907 24.3162L71.3364 28.6043C69.5061 29.005 68.1131 29.2054 67.1571 29.2054C64.6986 29.2054 63.0187 28.6708 62.1176 27.6023C61.216 26.5068 60.7654 24.5032 60.7654 21.5911V13.2556H58.3477V8.68705H60.7654V3.1167H66.2556V8.68705H71.2952V13.2556Z" fill="white"/>
<path d="M74.0527 28.7247V8.68729H79.5433V28.7247H74.0527ZM74.0527 6.12252V0.672363H79.5433V6.12252H74.0527Z" fill="white"/>
<path d="M102.357 31.2092C102.357 33.507 101.455 35.2033 99.6525 36.2988C97.8498 37.3942 95.4049 37.9418 92.3185 37.9418C89.2592 37.9418 86.8963 37.541 85.2301 36.7394C83.591 35.9383 82.7715 34.482 82.7715 32.3716C82.7715 30.6883 83.7551 29.0989 85.7218 27.6026C84.711 26.9345 84.2056 25.9193 84.2056 24.5569C84.2056 24.0226 84.6154 23.141 85.4349 21.912L85.8035 21.351C83.9463 20.0419 83.0176 18.1183 83.0176 15.5802C83.0176 13.0154 83.7959 11.1586 85.3529 10.0098C86.9371 8.86101 89.0267 8.28662 91.6218 8.28662C92.7962 8.28662 93.9575 8.4202 95.1048 8.68736L95.7602 8.80759L102.357 8.6072V12.8952L99.284 12.6548C99.8846 13.5631 100.185 14.4715 100.185 15.3798C100.185 18.0515 99.4889 19.8949 98.0955 20.9101C96.7026 21.9254 94.5173 22.433 91.5397 22.433C90.9115 22.433 90.3517 22.3796 89.8599 22.2727C89.587 22.9673 89.4501 23.5417 89.4501 23.9959C89.4501 24.4234 89.6826 24.7172 90.1468 24.8775C90.611 25.0378 91.7038 25.1313 93.4245 25.1581C96.8662 25.1847 99.2156 25.6391 100.472 26.5205C101.729 27.3756 102.357 28.9384 102.357 31.2092ZM88.18 31.8104C88.18 32.9591 89.6142 33.5336 92.4821 33.5336C95.3777 33.5336 96.8254 32.8655 96.8254 31.5298C96.8254 30.8084 96.5797 30.3411 96.0879 30.1274C95.5961 29.9404 94.5581 29.8335 92.9739 29.8069L89.2865 29.5263C88.549 30.2476 88.18 31.0088 88.18 31.8104ZM88.5077 15.4199C88.5077 17.3702 89.5458 18.3453 91.6218 18.3453C93.725 18.3453 94.7766 17.3702 94.7766 15.4199C94.7766 13.4429 93.725 12.4544 91.6218 12.4544C89.5458 12.4544 88.5077 13.4429 88.5077 15.4199Z" fill="white"/>
<path d="M105.97 10.9717C107.418 9.12825 109.835 8.20654 113.223 8.20654C116.609 8.20654 119.027 9.12825 120.475 10.9717C121.922 12.7884 122.646 15.3532 122.646 18.666C122.646 25.6924 119.505 29.2058 113.223 29.2058C106.94 29.2058 103.799 25.6924 103.799 18.666C103.799 15.3532 104.523 12.7884 105.97 10.9717ZM110.191 23.1944C110.764 24.1563 111.775 24.6372 113.223 24.6372C114.67 24.6372 115.667 24.1563 116.214 23.1944C116.787 22.2327 117.074 20.7232 117.074 18.666C117.074 16.6089 116.787 15.1128 116.214 14.1777C115.667 13.2426 114.67 12.7751 113.223 12.7751C111.775 12.7751 110.764 13.2426 110.191 14.1777C109.644 15.1128 109.371 16.6089 109.371 18.666C109.371 20.7232 109.644 22.2327 110.191 23.1944Z" fill="white"/>
</svg>
