<svg width="176" height="39" viewBox="0 0 176 39" fill="none" xmlns="http://www.w3.org/2000/svg">
<path fill-rule="evenodd" clip-rule="evenodd" d="M6.41922 9.7666C9.36638 5.80242 14.0858 3.23415 19.405 3.23415C24.7555 3.23415 29.4989 5.83272 32.4424 9.83666C32.3172 9.96551 32.203 10.099 32.0999 10.2324C31.5605 10.9306 31.1549 11.83 30.8299 12.7433C30.1754 14.5802 29.6761 16.9796 29.2139 19.2264L29.1728 19.4284C28.7116 21.6711 28.283 23.7568 27.7647 25.3051C27.5318 26.0007 27.311 26.4925 27.1152 26.8074C26.9109 26.49 26.679 25.9922 26.4336 25.2866C25.8793 23.6938 25.413 21.5274 24.9188 19.2142L24.9027 19.1384C24.4278 16.9165 23.924 14.5589 23.2958 12.7543C22.9802 11.8478 22.593 10.9574 22.0865 10.2656C21.5895 9.58672 20.7621 8.82054 19.552 8.82054C18.3495 8.82054 17.5183 9.57841 17.0141 10.2497C16.4979 10.937 16.0954 11.8237 15.7638 12.7306C15.0961 14.557 14.5502 16.946 14.0422 19.1959L13.9897 19.4284C13.4867 21.6571 13.0164 23.7408 12.4825 25.2921C12.2787 25.8845 12.0864 26.3352 11.9124 26.6572C11.7423 26.3367 11.5548 25.889 11.3565 25.3016C10.8444 23.7834 10.3957 21.758 9.91388 19.5827L9.82955 19.202C9.33027 16.9507 8.78864 14.5574 8.11144 12.7253C7.77497 11.8149 7.36343 10.9238 6.83086 10.2333C6.71027 10.077 6.57321 9.91833 6.41922 9.7666ZM4.63552 12.8105C4.77588 13.0876 4.92436 13.4312 5.0779 13.8466C5.66406 15.4324 6.16067 17.5963 6.67207 19.9022L6.77157 20.3515C7.23719 22.4556 7.72154 24.6443 8.29202 26.3352C8.59544 27.2346 8.96185 28.1155 9.43313 28.8C9.87877 29.4475 10.6783 30.2838 11.9076 30.2838C13.1334 30.2838 13.9348 29.4515 14.3835 28.807C14.8588 28.124 15.2312 27.2441 15.5408 26.3442C16.1342 24.6198 16.6394 22.3798 17.123 20.2361L17.1969 19.9083C17.7179 17.6009 18.2195 15.4327 18.8014 13.8412C19.0709 13.1038 19.3233 12.5901 19.543 12.2714C19.7513 12.5873 19.9892 13.0928 20.2414 13.8176C20.7959 15.4104 21.2617 17.5768 21.7561 19.89L21.7723 19.9658C22.2471 22.1878 22.7509 24.5453 23.3791 26.3497C23.6947 27.2566 24.0819 28.147 24.5884 28.8386C25.0855 29.5176 25.9128 30.2838 27.1227 30.2838C28.3391 30.2838 29.1633 29.5106 29.6546 28.8256C30.1534 28.1305 30.5284 27.2371 30.8314 26.3317C31.4138 24.5927 31.877 22.3362 32.3182 20.1896L32.3818 19.8778C32.857 17.5674 33.3132 15.4095 33.8766 13.8285C33.9988 13.4845 34.119 13.1913 34.2337 12.945C35.097 14.9236 35.5757 17.1084 35.5757 19.405C35.5757 28.3358 28.3361 35.576 19.405 35.576C10.4741 35.576 3.23415 28.3358 3.23415 19.405C3.23415 17.0562 3.73492 14.8244 4.63552 12.8105ZM19.405 0C8.68793 0 0 8.68793 0 19.405C0 30.1221 8.68793 38.81 19.405 38.81C30.1223 38.81 38.8097 30.1221 38.8097 19.405C38.8097 8.68793 30.1223 0 19.405 0ZM19.7747 12.0007C19.7747 12.0011 19.7709 12.0041 19.7634 12.0085C19.7709 12.0025 19.7747 12.0003 19.7747 12.0007ZM19.3277 12.0029C19.3202 11.9982 19.3165 11.9951 19.3165 11.9947C19.3165 11.9943 19.3202 11.9966 19.3277 12.0029ZM26.8768 27.1144C26.8768 27.1144 26.8803 27.1109 26.8873 27.1064C26.8803 27.1124 26.8768 27.1149 26.8768 27.1144ZM27.347 27.1014C27.3545 27.1059 27.3585 27.1089 27.3585 27.1094C27.3585 27.1099 27.3545 27.1074 27.347 27.1014ZM11.5762 27.1435C11.5761 27.143 11.5808 27.1385 11.5901 27.1319C11.5809 27.1405 11.5762 27.144 11.5762 27.1435ZM12.2312 27.1349C12.2404 27.1415 12.245 27.146 12.245 27.1465C12.245 27.147 12.2403 27.144 12.2312 27.1349Z" fill="white"/>
<path d="M49.5241 30.8928L44.8184 14.7964H48.9402L51.731 26.3818L54.9761 14.7964H59.5842L62.8297 26.3818L65.6531 14.7964H69.7744L65.0366 30.8928H60.7204L57.2801 18.853L53.8403 30.8928H49.5241Z" fill="white"/>
<path d="M75.8229 31.2827C74.4383 31.2827 73.3025 31.0658 72.4157 30.6332C71.5288 30.179 70.8688 29.584 70.4361 28.8484C70.0034 28.1128 69.7871 27.3015 69.7871 26.4146C69.7871 24.9218 70.371 23.7102 71.5393 22.7799C72.7076 21.8496 74.4603 21.3845 76.7969 21.3845H80.8858V20.995C80.8858 19.8917 80.5718 19.0804 79.9448 18.5611C79.3173 18.0418 78.5381 17.7822 77.6082 17.7822C76.7644 17.7822 76.0288 17.9878 75.4013 18.3988C74.7738 18.7883 74.3842 19.3724 74.233 20.1513H70.1762C70.2849 18.983 70.674 17.9661 71.3445 17.1007C72.0371 16.2354 72.924 15.5755 74.0056 15.1212C75.0878 14.6452 76.2992 14.4072 77.6403 14.4072C79.9338 14.4072 81.7401 14.9805 83.0601 16.1272C84.3797 17.2738 85.0397 18.8965 85.0397 20.995V30.8931H81.5022L81.1131 28.2971C80.6369 29.1624 79.9663 29.876 79.101 30.4389C78.2572 31.0012 77.1645 31.2827 75.8229 31.2827ZM76.7644 28.0371C77.9542 28.0371 78.8737 27.6475 79.5227 26.8688C80.1932 26.0901 80.6154 25.1271 80.7886 23.9806H77.2511C76.1474 23.9806 75.3582 24.1862 74.882 24.5972C74.4062 24.9867 74.1679 25.4737 74.1679 26.0576C74.1679 26.6851 74.4062 27.1718 74.882 27.5178C75.3582 27.8639 75.9852 28.0371 76.7644 28.0371Z" fill="white"/>
<path d="M91.578 30.8928L85.6719 14.7964H90.0201L94.1094 26.9663L98.1982 14.7964H102.547L96.6083 30.8928H91.578Z" fill="white"/>
<path d="M110.898 31.2827C109.276 31.2827 107.837 30.9361 106.582 30.2441C105.328 29.5515 104.343 28.578 103.629 27.323C102.915 26.0686 102.559 24.6189 102.559 22.9746C102.559 21.3087 102.905 19.8268 103.597 18.5286C104.311 17.2305 105.284 16.2245 106.518 15.5106C107.772 14.775 109.243 14.4072 110.931 14.4072C112.51 14.4072 113.906 14.7534 115.118 15.4457C116.329 16.138 117.27 17.0899 117.941 18.3015C118.633 19.4914 118.979 20.8219 118.979 22.2931C118.979 22.5311 118.968 22.7799 118.947 23.0395C118.947 23.2992 118.936 23.5696 118.914 23.8508H106.68C106.767 25.1056 107.199 26.0901 107.978 26.8042C108.778 27.5178 109.741 27.8749 110.866 27.8749C111.71 27.8749 112.413 27.6911 112.976 27.323C113.56 26.9339 113.992 26.4362 114.274 25.8302H118.493C118.19 26.8473 117.681 27.7777 116.967 28.6216C116.275 29.4433 115.409 30.0923 114.371 30.5686C113.354 31.0443 112.196 31.2827 110.898 31.2827ZM110.931 17.7822C109.914 17.7822 109.017 18.0743 108.237 18.6584C107.459 19.221 106.961 20.0864 106.745 21.2547H114.76C114.695 20.1945 114.306 19.3508 113.592 18.7233C112.878 18.096 111.991 17.7822 110.931 17.7822Z" fill="white"/>
<path d="M121.174 30.8931V7.52734H125.328V30.8931H121.174Z" fill="white"/>
<path d="M136.096 31.2827C134.473 31.2827 133.035 30.9361 131.78 30.2441C130.525 29.5515 129.541 28.578 128.827 27.323C128.112 26.0686 127.756 24.6189 127.756 22.9746C127.756 21.3087 128.102 19.8268 128.794 18.5286C129.508 17.2305 130.482 16.2245 131.715 15.5106C132.97 14.775 134.441 14.4072 136.128 14.4072C137.708 14.4072 139.103 14.7534 140.315 15.4457C141.526 16.138 142.468 17.0899 143.138 18.3015C143.83 19.4914 144.177 20.8219 144.177 22.2931C144.177 22.5311 144.166 22.7799 144.144 23.0395C144.144 23.2992 144.133 23.5696 144.112 23.8508H131.877C131.964 25.1056 132.397 26.0901 133.175 26.8042C133.975 27.5178 134.938 27.8749 136.064 27.8749C136.907 27.8749 137.611 27.6911 138.173 27.323C138.757 26.9339 139.19 26.4362 139.471 25.8302H143.69C143.387 26.8473 142.878 27.7777 142.165 28.6216C141.472 29.4433 140.607 30.0923 139.568 30.5686C138.552 31.0443 137.394 31.2827 136.096 31.2827ZM136.128 17.7822C135.112 17.7822 134.214 18.0743 133.435 18.6584C132.656 19.221 132.158 20.0864 131.942 21.2547H139.958C139.893 20.1945 139.504 19.3508 138.789 18.7233C138.075 18.096 137.188 17.7822 136.128 17.7822Z" fill="white"/>
<path d="M153.025 31.2827C151.598 31.2827 150.343 31.0553 149.261 30.6011C148.179 30.1249 147.313 29.4759 146.664 28.6536C146.015 27.8318 145.626 26.8799 145.496 25.7982H149.683C149.812 26.4252 150.159 26.9665 150.721 27.4207C151.305 27.8534 152.052 28.0697 152.96 28.0697C153.869 28.0697 154.529 27.8859 154.94 27.5178C155.372 27.1503 155.589 26.7281 155.589 26.2524C155.589 25.5598 155.286 25.0946 154.68 24.8569C154.074 24.5972 153.231 24.3484 152.149 24.1105C151.457 23.959 150.754 23.7751 150.04 23.5588C149.326 23.3424 148.666 23.072 148.06 22.7475C147.476 22.4013 147 21.9686 146.632 21.4494C146.264 20.9085 146.08 20.2486 146.08 19.4698C146.08 18.0418 146.643 16.8411 147.768 15.8676C148.914 14.894 150.515 14.4072 152.571 14.4072C154.475 14.4072 155.989 14.8507 157.114 15.7377C158.261 16.6248 158.942 17.8471 159.159 19.4049H155.232C154.994 18.215 154.096 17.62 152.538 17.62C151.76 17.62 151.154 17.7714 150.721 18.0743C150.31 18.3772 150.105 18.7558 150.105 19.2101C150.105 19.6861 150.418 20.0647 151.046 20.346C151.673 20.6272 152.506 20.8868 153.545 21.1249C154.669 21.3845 155.697 21.6765 156.627 22.0011C157.579 22.3039 158.336 22.7691 158.899 23.3965C159.462 24.0023 159.743 24.8785 159.743 26.025C159.765 27.0206 159.505 27.918 158.964 28.7187C158.423 29.5189 157.644 30.1464 156.627 30.6011C155.611 31.0553 154.41 31.2827 153.025 31.2827Z" fill="white"/>
<path d="M168.777 31.2827C167.349 31.2827 166.094 31.0553 165.012 30.6011C163.931 30.1249 163.065 29.4759 162.416 28.6536C161.767 27.8318 161.378 26.8799 161.248 25.7982H165.435C165.564 26.4252 165.91 26.9665 166.473 27.4207C167.057 27.8534 167.803 28.0697 168.712 28.0697C169.62 28.0697 170.281 27.8859 170.692 27.5178C171.124 27.1503 171.341 26.7281 171.341 26.2524C171.341 25.5598 171.038 25.0946 170.432 24.8569C169.826 24.5972 168.983 24.3484 167.901 24.1105C167.208 23.959 166.505 23.7751 165.791 23.5588C165.077 23.3424 164.417 23.072 163.812 22.7475C163.228 22.4013 162.751 21.9686 162.384 21.4494C162.016 20.9085 161.832 20.2486 161.832 19.4698C161.832 18.0418 162.395 16.8411 163.52 15.8676C164.666 14.894 166.267 14.4072 168.322 14.4072C170.226 14.4072 171.741 14.8507 172.866 15.7377C174.012 16.6248 174.694 17.8471 174.91 19.4049H170.984C170.746 18.215 169.848 17.62 168.29 17.62C167.511 17.62 166.905 17.7714 166.473 18.0743C166.061 18.3772 165.856 18.7558 165.856 19.2101C165.856 19.6861 166.17 20.0647 166.797 20.346C167.425 20.6272 168.257 20.8868 169.296 21.1249C170.421 21.3845 171.449 21.6765 172.379 22.0011C173.331 22.3039 174.088 22.7691 174.651 23.3965C175.213 24.0023 175.495 24.8785 175.495 26.025C175.516 27.0206 175.257 27.918 174.716 28.7187C174.175 29.5189 173.396 30.1464 172.379 30.6011C171.362 31.0553 170.161 31.2827 168.777 31.2827Z" fill="white"/>
</svg>
